<?xml version="1.0" encoding="UTF-8"?>
<svg width="346px" height="346px" viewBox="0 0 346 346" version="1.1" xmlns="http://www.w3.org/2000/svg" xmlns:xlink="http://www.w3.org/1999/xlink">
    <title>reachy-icon</title>
    <g id="reachy-icon" stroke="none" stroke-width="1" fill="none" fill-rule="evenodd">
        <g transform="translate(33.000000, 13.000000)" fill-rule="nonzero">
            <path d="M69.1035781,318.222996 L68.6379456,318.079218 C56.9435144,315.874626 46.7278192,311.583847 37.9908599,305.206881 C25.6304331,296.174255 17.0712609,279.673644 13.3377347,264.856079 C12.8579921,262.961595 12.5475704,261.340572 12.4064697,259.993008 C12.1609543,257.692564 11.6021953,256.068721 11.2466214,253.455349 C11.0208602,251.769484 10.625778,248.084827 10.061375,242.401377 C9.61267457,237.918895 9.87512199,234.045353 9.58727644,228.877812 C9.05109354,219.162947 9.05391555,209.056217 9.59574248,198.557622 C9.69733503,196.651862 10.0783071,193.598699 10.7386587,189.398134 C13.5380978,180.083591 17.2123616,171.186285 21.7614502,162.706217 L26.6294265,156.887447 C26.6350121,156.8826 26.6452073,156.8826 26.6548247,156.887447 L26.8326116,157.022768 C26.9661534,157.124373 26.9997577,157.307145 26.908806,157.437186 L19.9835806,167.983707 C19.9588627,168.024538 19.9621974,168.07784 19.9920467,168.119027 L19.9920467,168.127484 C20.089064,168.183996 20.2131107,168.158482 20.2798922,168.068282 L26.6802228,159.60231 C26.806644,159.426349 26.8747371,159.21636 26.8749419,159.001826 C26.8749419,158.51129 26.9285602,158.178628 27.0357967,158.003839 C27.8173985,156.751995 27.7474668,155.111921 26.8580098,153.834285 C24.1488751,149.93537 22.8620362,144.869319 21.8461107,140.488327 C20.601602,135.13472 18.4766245,127.68365 17.4776311,122.888239 C16.8003474,119.657468 17.4748091,116.601486 19.501016,113.720293 C19.9865111,113.022674 20.1180065,112.137538 19.8565899,111.326816 L15.4711782,97.9724009 C15.4656817,97.955885 15.4627581,97.9412815 15.4627122,97.9301133 C15.0732741,95.0150899 14.6640819,92.7935828 14.2351356,91.2655918 C13.4336832,88.3900368 12.9708727,86.6590655 12.846704,86.0726778 C12.0678278,82.3852015 11.3397479,78.4609147 9.78199549,75.162484 C9.66999029,74.9164075 9.51513933,74.6929593 9.32482902,74.5027979 C6.54232198,71.6103279 4.87451097,69.3098839 4.32139598,67.601466 C2.5491704,62.1379115 1.11840867,55.0674294 0.0291107806,46.3900194 C-0.037912484,45.8376976 0.0110977974,45.2760874 0.173033558,44.740804 C1.82391248,39.4210274 3.99968624,34.845512 9.87512199,33.4415646 C16.3177828,31.9022969 22.8705022,32.4943229 27.2474479,37.8733022 C28.3254577,39.1926745 29.2482567,41.2112013 30.0158448,43.9288826 C31.2631756,48.3211519 32.5923448,53.5930026 34.0033524,59.7444349 C34.0483327,59.9298669 34.0710709,60.1172675 34.0710808,60.3026309 L34.0710808,62.966748 C34.0710384,63.0116056 34.0624335,63.0603178 34.0456826,63.1105257 C33.2611624,65.7436319 32.9902489,67.5140717 33.2329422,68.4218449 C35.044676,75.3795602 36.8422997,82.5430751 38.6258134,89.9123895 C38.7161179,90.2788817 38.9051929,90.8398969 39.1930384,91.5954349 C39.2662997,91.7980621 39.3229318,92.0073897 39.3623593,92.2212909 C40.5701819,98.7561305 41.5917514,102.953877 42.4270679,104.81453 C42.6584732,105.321981 43.2200542,105.8689 44.111811,106.455288 C47.2357819,108.510464 49.1660403,111.563627 50.1057714,115.301848 C50.2750923,115.961534 50.5121416,116.468985 50.8169192,116.824201 C50.9678737,117.008516 51.0828776,117.223931 51.1555611,117.458514 L57.4796973,138.543098 C57.5165739,138.666027 57.6420732,138.739776 57.7675428,138.712249 C67.3511066,136.547125 72.8794345,134.9994 80.7274589,133.97604 C86.0497797,133.282524 88.9620994,132.935766 89.4644181,132.935766 C91.5301333,132.952681 96.7395734,132.504433 105.092739,131.591021 C111.763983,130.863675 116.970601,130.378778 120.712593,130.136329 C126.17037,129.775475 132.886767,129.471004 140.861782,129.222917 C149.339116,128.963553 156.535255,128.791584 162.450199,128.707009 C177.497184,128.487113 191.787869,129.065044 205.322254,130.440799 C205.495988,130.460373 205.667839,130.390805 205.778923,130.255931 C205.890007,130.121057 205.925239,129.939194 205.872547,129.772656 C205.466177,128.515305 205.240416,127.297423 205.195264,126.119009 C205.065451,122.262383 205.265814,118.52698 205.796353,114.912803 C206.38051,110.954686 205.720158,107.833863 206.78688,104.180217 C206.81498,104.095943 206.832055,104.007811 206.837676,103.918034 L208.344633,84.0851619 L209.716132,80.7867312 C212.865501,77.8773462 214.578464,74.2377958 214.855022,69.8680799 C215.142867,65.3743205 215.374273,61.1512015 215.549238,57.198723 C215.811685,51.2700053 217.123922,45.2736275 215.854015,39.2687921 C214.871954,34.6453508 214.397855,31.5047937 214.431719,29.8471209 C214.533312,25.0601676 214.976368,19.7432101 215.760889,13.8962483 C216.353512,9.48142573 218.444625,4.14473403 222.923163,2.48706117 C223.961665,2.0980155 225.17231,1.63849054 226.555097,1.10848629 C234.55551,-1.94467647 242.555923,1.50598948 246.145527,9.04163497 C246.712752,10.2172295 246.856675,11.688837 247.347705,12.8644316 C247.539602,13.3211374 247.638373,13.8455033 247.644017,14.4375293 C247.660949,17.6062781 247.598865,19.9461904 247.457764,21.4572664 C247.057038,25.691662 246.515211,30.721064 245.832283,36.5454724 C245.782019,36.9577212 245.640296,37.3535682 245.417447,37.7041519 L241.734717,43.5482945 C241.706826,43.5873195 241.689356,43.6309507 241.683921,43.6751572 C240.481742,53.8580048 239.589985,63.2317501 239.00865,71.7963932 C238.92399,73.0932121 239.067913,74.8326409 239.440419,77.0146797 C239.496859,77.3247886 240.112058,78.9401739 241.286017,81.8608356 C242.476907,84.809689 243.021556,87.7247123 242.919963,90.6059056 C242.818371,93.3968855 242.21446,100.49274 241.10823,111.89347 C240.752656,115.589404 241.048967,119.116187 241.023569,122.346958 C240.989705,125.983689 240.176965,130.0292 238.585348,134.483491 C238.494224,134.737874 238.6115,135.019785 238.856261,135.13472 C242.575678,136.922075 245.66014,138.509268 248.109649,139.896301 C258.534174,145.788369 266.004048,153.78072 270.519273,163.873355 C272.838969,169.043715 274.537822,173.187897 275.615832,176.305901 C275.711781,176.58218 275.754111,177.038886 275.742823,177.676018 C275.742797,177.979314 275.77976,178.280398 275.852881,178.572515 C277.43321,184.605542 278.353187,189.821009 278.612812,194.218917 C279.036115,201.162536 279.230834,211.725972 278.570482,220.699395 C278.327789,223.986549 278.135892,227.710675 277.994791,231.871772 C277.910131,234.358281 277.661793,237.431178 277.249779,241.090463 C276.899849,244.146445 276.544275,247.205246 276.183057,250.266866 C275.161488,258.944276 273.203009,266.508113 270.307621,272.958378 C266.435817,281.585043 263.196143,286.603168 260.588601,288.012754 C260.549093,288.029669 260.523695,288.055041 260.512406,288.088871 C260.495677,288.121877 260.48966,288.173676 260.49883,288.205739 C260.508,288.237801 260.529027,288.238483 260.546271,288.207276 C260.709948,288.032488 260.938531,287.843603 261.23202,287.640623 C261.24668,287.625477 261.268486,287.624756 261.284648,287.638883 C261.30081,287.653011 261.307067,287.678262 261.299749,287.699826 C258.226574,294.051419 248.050387,300.064712 241.015103,303.024842 C235.399293,305.381669 232.094713,306.723595 231.101364,307.050619 C227.111034,308.358715 221.991898,309.649895 215.743957,310.924161 C209.625827,312.170234 204.422031,313.086465 200.132568,313.672853 C191.762471,314.823075 185.618944,315.677284 181.701987,316.23548 C180.48852,316.410268 179.069046,316.545589 177.443566,316.64144 C175.575391,316.748569 174.20107,316.985379 173.320601,317.351872 C173.10266,317.441147 172.872584,317.487116 172.643318,317.487192 C167.944662,317.521022 160.968641,317.943898 154.56831,318.493636 C144.708189,319.339388 137.805539,319.860934 133.860362,320.058276 C127.967994,320.345832 119.8547,320.636207 109.52048,320.9294 C102.087292,321.138019 93.0568435,320.884294 82.4291341,320.168224 C77.9139097,319.863754 73.4720577,319.215344 69.1035781,318.222996 Z M209.216635,131.963152 C209.27793,132.027843 209.288049,132.124126 209.241669,132.201347 C209.19529,132.278569 209.10304,132.319033 209.01345,132.301453 C201.9697,130.762185 192.140621,130.728355 186.993265,130.347767 C179.977735,129.823401 166.781992,129.747283 147.406035,130.119414 C135.423758,130.350586 121.451961,131.292189 105.490643,132.944224 C88.4738908,134.709025 74.3722805,137.150428 63.1858121,140.268431 C60.3242886,141.063438 57.8691354,141.855625 55.8203523,142.644993 C55.7277954,142.679807 55.6246958,142.672447 55.5394218,142.624938 C55.4541478,142.577429 55.3956844,142.494778 55.3801179,142.399725 C54.8721552,139.346562 54.5673775,137.223726 53.8223655,134.525779 C51.8300227,127.348168 50.1085934,120.793594 48.6580776,114.862057 C47.7268125,111.081548 45.5679709,108.696529 42.4270679,106.759759 C41.7331366,106.331633 41.237069,105.647567 41.0471025,104.856818 C38.2025111,93.061404 35.3212335,81.6493977 32.4032697,70.6207987 C31.8388667,68.489505 31.7288081,66.9023114 32.073094,65.859218 C32.9196985,63.2881335 33.0918415,60.8551885 32.5895227,58.5603829 C32.3637615,57.5285661 31.3732342,53.7255037 29.6179407,47.1511957 C28.8277764,44.1967039 27.8090289,41.8455149 26.5616982,40.0976285 C21.9392372,33.6614599 12.5673245,32.4351203 6.71728693,37.754897 C3.22927608,40.9236458 1.77876024,45.1805948 2.36573941,50.525744 C2.7156693,53.6775778 3.96582206,59.0311845 6.11619768,66.5865642 C6.46048354,67.8044463 8.03799006,69.9949426 10.8487173,73.1580531 C10.9990046,73.324746 11.1091749,73.5274867 11.170427,73.7500791 L21.1434289,111.580542 C21.3530899,112.369368 21.207867,113.212047 20.7455247,113.889443 C18.945079,116.533826 18.4314722,119.744863 19.2047044,123.522552 C19.9327843,127.063432 22.0267197,135.179827 25.4865104,147.871737 C26.2823187,150.798037 27.8062069,153.276089 30.0581751,155.305892 C30.3902438,155.604918 30.5867173,156.025699 30.6026737,156.472028 C30.6186301,156.918357 30.452705,157.352068 30.1428355,157.673996 C23.020069,165.082779 18.1154065,173.847583 15.428848,183.968409 C14.4862949,187.526204 13.7949012,190.725963 13.3546668,193.567688 C10.3068903,213.330081 10.0500869,233.058643 12.5842566,252.753375 C13.1373716,257.072346 13.769503,260.579395 14.4806509,263.274523 C19.5602783,282.692977 29.0422496,300.225405 47.26118,309.697821 C70.3565528,321.707492 97.1007914,320.320459 122.270345,319.542368 C123.768835,319.50008 125.478977,319.034917 126.875874,318.950342 C144.451385,317.811397 162.105913,316.218565 179.839457,314.171846 C192.65705,312.6946 205.934632,310.506923 219.672202,307.608815 C229.204969,305.590288 238.088673,302.277762 246.323314,297.671235 C258.232218,291.001075 266.320114,281.179082 270.587001,268.205254 C272.551124,262.228611 273.756124,257.571339 274.202002,254.23344 C275.821839,242.037704 276.930891,228.232221 277.529158,212.816991 C277.805716,205.712679 277.7267,199.727578 277.292109,194.861688 C276.603537,187.154073 275.003455,179.750929 272.491861,172.652255 C269.816591,165.102513 266.004048,158.604323 261.054233,153.157684 C253.705706,145.061023 244.59624,139.741246 233.725838,137.198354 C233.445643,137.130844 233.216181,136.930477 233.112844,136.663085 C233.009506,136.395694 233.045653,136.095848 233.209409,135.862066 C234.851822,133.46859 237.332373,131.574106 237.755676,128.419453 C239.268276,117.052554 240.50714,104.673572 241.47227,91.2825068 C241.827844,86.4335318 240.495852,82.5797243 237.476296,79.7210844 C237.22717,79.4879281 237.080989,79.1654373 237.069926,78.8245878 C237.007841,76.822976 236.985265,75.7404142 237.002197,75.5769022 C238.509154,62.9075454 239.573053,52.0424583 240.193897,42.981641 C240.210583,42.7667633 240.293428,42.5628148 240.430946,42.3980725 L242.936896,39.2687921 C242.993209,39.1956615 243.041418,39.1191714 243.080818,39.0404392 C243.921779,37.2361694 244.378945,36.1338734 244.452318,35.733551 C245.022365,32.4915038 245.569836,27.0307685 246.094731,19.3513453 C246.712752,10.3948373 242.530525,1.87812012 232.921563,1.30300913 C224.988879,0.820930797 219.325094,6.11533493 218.004391,13.5748628 C217.462564,16.6364831 216.869941,21.8773229 216.226521,29.2973824 C215.887879,33.1258173 216.412774,36.3114812 217.801206,38.8543739 C218.664742,40.4443866 218.774801,41.7637589 218.630878,43.2945691 C217.502072,55.1068978 216.44946,66.747257 215.473043,78.2156468 C215.445548,78.522956 215.317497,78.8115248 215.109003,79.0360257 C214.685701,79.4870931 214.225712,79.9099689 213.729038,80.3046529 C211.206156,82.2752538 209.707666,86.1234229 209.41982,89.1342981 C208.821553,95.5225408 207.802806,106.72029 206.363578,122.727546 C206.041868,126.341724 206.992887,129.420259 209.216635,131.963152 Z" id="Shape" fill="#C5C5C7"></path>
            <path d="M209.638407,131.789284 C207.418304,129.244471 206.468844,126.163611 206.790026,122.546703 C208.226895,106.527358 209.243972,95.3211523 209.841259,88.9280851 C210.128632,85.9149361 211.624666,82.0638608 214.143411,80.0917716 C214.639272,79.6967896 215.098506,79.2735945 215.521115,78.8221864 C215.729266,78.5975159 215.857107,78.3087291 215.884558,78.0011879 C216.859374,66.524137 217.91026,54.8749868 219.037216,43.0537372 C219.180903,41.521771 219.071025,40.2014023 218.208904,38.6101888 C216.822748,36.0653756 216.298714,32.8773059 216.636801,29.0459797 C217.279165,21.6203165 217.870817,16.3755187 218.411756,13.3115862 C219.730294,5.8464248 225.384793,0.548022255 233.304473,1.03046466 C242.897682,1.60600998 247.073053,10.1291591 246.456044,19.0924312 C245.93201,26.777654 245.385437,32.2425133 244.816324,35.487009 C244.743072,35.8876337 244.286655,36.9907622 243.447073,38.7963946 C243.407738,38.8751863 243.359608,38.9517341 243.303386,39.02492 L240.801545,42.1565636 C240.664252,42.3214303 240.581543,42.5255328 240.564884,42.7405729 C239.945059,51.808233 238.882903,62.6815256 237.378417,75.3604505 C237.361513,75.524086 237.384052,76.6074654 237.446035,78.6105888 C237.45708,78.9516957 237.603021,79.2744301 237.851739,79.5077624 C240.866345,82.3685612 242.196152,86.2252792 241.841161,91.0779162 C240.877614,104.479094 239.640781,116.867425 238.13066,128.242909 C237.708052,131.399945 235.231567,133.295859 233.591847,135.691143 C233.42836,135.925101 233.392272,136.225173 233.49544,136.492767 C233.598608,136.760361 233.827694,136.960879 234.107429,137.028439 C244.960011,139.573252 254.054542,144.897047 261.391023,152.999822 C266.332723,158.450575 270.139015,164.953673 272.8099,172.509116 C275.317376,179.613151 276.914836,187.021886 277.602279,194.735322 C278.036156,199.604887 278.115043,205.594508 277.838939,212.704185 C277.241653,228.131057 276.134419,241.946966 274.517238,254.151913 C274.07209,257.492333 272.869065,262.153121 270.908163,268.134279 C266.648271,281.117904 258.573634,290.947315 246.684253,297.622513 C238.463112,302.232518 229.593972,305.547546 220.076832,307.567597 C206.361783,310.467894 193.105969,312.657223 180.309388,314.135585 C162.604916,316.183849 144.979332,317.777884 127.432634,318.91769 C126.038026,319.002329 124.330688,319.467843 122.834655,319.510163 C97.7063635,320.288842 71.005969,321.676922 47.9484584,309.658181 C29.7593957,300.178611 20.2929691,282.632942 15.2216691,263.199824 C14.5116871,260.50266 13.880592,256.992962 13.3283838,252.67073 C10.7983685,232.961124 11.0547509,213.217662 14.0975309,193.440345 C14.5370436,190.596474 15.2273039,187.394298 16.1683118,183.833816 C18.850466,173.705347 23.7470879,164.933924 30.8581774,157.519546 C31.1675388,157.197374 31.333192,156.763335 31.3172618,156.316669 C31.3013315,155.870003 31.1051801,155.448904 30.7736557,155.149653 C28.5253794,153.118317 27.0039894,150.638393 26.2094857,147.709883 C22.755367,135.008388 20.6648644,126.885864 19.9379781,123.34231 C19.1660135,119.561767 19.6787783,116.348306 21.4762724,113.701926 C21.9378567,113.024018 22.0828416,112.180702 21.8735243,111.391281 L11.9168719,73.5322477 C11.8557203,73.3094873 11.7457306,73.1065934 11.5956896,72.9397746 C8.78957027,69.7742753 7.21464988,67.5821247 6.87092844,66.3633229 C4.72407811,58.8022372 3.47597483,53.4445874 3.12661861,50.2903733 C2.54060172,44.9411873 3.98873961,40.6810234 7.47103227,37.5098815 C13.3114794,32.1860873 22.6680279,33.4133531 27.2829109,39.8543823 C28.5281968,41.6035887 29.5452742,43.9565534 30.3341431,46.9132765 C32.086559,53.4925495 33.0754625,57.298484 33.3008536,58.33108 C33.8023488,60.6276187 33.6304881,63.0624012 32.7852714,65.6354273 C32.44155,66.6793085 32.5514281,68.2677008 33.1149059,70.400604 C36.028086,81.437532 38.9046401,92.8581569 41.7445681,104.662479 C41.9342232,105.453826 42.4294776,106.138408 43.1222712,106.566857 C46.2580251,108.50509 48.4133276,110.89191 49.3430659,114.675275 C50.7912038,120.611291 52.509811,127.170815 54.4988875,134.353846 C55.2426782,137.053831 55.5469562,139.17827 56.0540862,142.233739 C56.0696271,142.328863 56.1279948,142.411577 56.213129,142.459122 C56.2982632,142.506666 56.4011937,142.514032 56.4935989,142.479192 C58.5390232,141.689228 60.9901515,140.896442 63.8469839,140.100836 C75.0151134,136.980477 89.0936057,134.537231 106.082461,132.771097 C122.017612,131.117814 135.966505,130.1755 147.929138,129.944153 C167.27333,129.571742 180.44744,129.647917 187.451469,130.172679 C192.590386,130.553554 202.403352,130.58741 209.435555,132.12784 C209.524997,132.145434 209.617096,132.104939 209.663399,132.027659 C209.709703,131.950379 209.6996,131.854024 209.638407,131.789284 Z M38.6595272,124.992771 L38.4313187,124.679606 C39.3723266,124.476473 40.2598041,124.05892 41.0937512,123.426949 C41.3475078,123.231065 41.466023,122.907992 41.3980292,122.597487 C41.1839077,121.632602 40.251352,121.294046 38.6003621,121.581818 C38.5007945,121.597684 38.4039026,121.540901 38.3689532,121.4462 C38.3340038,121.3515 38.3707334,121.245266 38.4566752,121.192479 L40.0034217,120.295305 C40.3875262,120.070431 40.5743663,119.616372 40.4599695,119.1858 C40.3455727,118.755229 39.95811,118.454178 39.5131961,118.450175 L36.9775461,118.450175 C36.9508194,118.449105 36.9260569,118.43103 36.9179484,118.40667 C36.9098399,118.382311 36.9205551,118.358187 36.9437374,118.348608 L39.1497529,117.070559 C39.4308468,116.909781 39.6022231,116.608493 39.5969459,116.284371 C39.5916686,115.96025 39.410575,115.664717 39.1243964,115.513201 C38.4144144,115.135147 37.0761547,114.979975 35.1096172,115.047686 C34.8024865,115.056842 34.5290453,114.849721 34.4503482,114.548316 L21.8228113,64.975243 C21.7577243,64.7266116 21.8721653,64.4626846 22.1017328,64.3319864 C23.6287575,63.4799536 24.2739396,62.4501789 24.0372789,61.2426623 C23.9752964,60.9097488 23.8823225,60.7009725 23.7583574,60.6163335 C23.6569314,60.5429797 23.4681664,60.4780898 23.1920622,60.4216638 C23.0414774,60.3889139 22.9101252,60.2978706 22.8274882,60.1689688 C22.7448512,60.040067 22.7178516,59.8841046 22.7525496,59.7360877 C22.8088974,59.4878133 22.9159581,59.2056832 23.0737319,58.8896976 C23.2427752,58.5511415 23.2146014,58.2295132 22.9892102,57.9248127 C22.8652451,57.7555347 22.4764455,57.6850022 21.8228113,57.7132152 C21.7398498,57.7243575 21.6612379,57.6730235 21.6379632,57.5925086 C21.6146886,57.5119936 21.6537607,57.4265459 21.7298374,57.3915869 L22.4651759,56.9683918 C22.6566071,56.8568414 22.7825409,56.6582203 22.8032626,56.435166 C22.8483408,55.9894005 22.7074714,55.5351711 22.3806543,55.0724778 C22.2805451,54.933155 22.2139825,54.7708644 22.1862544,54.5984993 C21.5213506,50.6656063 20.8958903,47.9966559 20.3098734,46.5916482 C19.4026742,44.4248893 17.8333886,43.6151761 15.6020166,44.1625084 C13.0945405,44.7775519 12.0323849,46.6255038 12.4155498,49.7063641 C12.612767,51.2524368 13.0889057,51.9464768 13.8439659,51.7884839 C13.8929843,51.7814016 13.9406756,51.808033 13.9604229,51.8535148 C13.9801701,51.8989966 13.967092,51.9520862 13.9284876,51.9831537 C13.0776362,52.5925546 12.9508537,53.4953708 13.5481401,54.6916023 C13.931305,55.4477108 14.475061,55.600061 15.1794083,55.1486529 C15.2563108,55.0995298 15.3555225,55.1030867 15.42872,55.1575912 C15.5019176,55.2120957 15.5338814,55.306215 15.5090428,55.3941061 C15.4132515,55.693164 15.2188517,55.9245106 14.9258433,56.0881461 C14.5933914,56.2799945 14.4130785,56.5931589 14.3849046,57.0276392 C14.3510959,57.5636863 14.4863306,58.0658778 14.7906086,58.5342137 C14.8639928,58.648092 14.9818266,58.7258081 15.1152838,58.7483503 C15.2487411,58.7708924 15.3855122,58.7361812 15.4921384,58.6527083 C15.6780861,58.5172859 16.0133554,58.39597 16.4979463,58.2887605 C16.5271852,58.2860088 16.5548549,58.3024712 16.5664234,58.3295019 C16.5779919,58.3565326 16.5708139,58.3879505 16.5486593,58.4072552 L15.4667819,59.02512 C15.2397709,59.1601664 15.0779925,59.3802459 15.0188171,59.6345209 C14.7990608,60.5824779 15.2103995,61.239841 16.2528334,61.60661 C16.6303635,61.7363899 16.7007983,61.9169531 16.4641376,62.1482998 C16.2669204,62.3401482 16.0697031,62.5348179 15.8724859,62.732309 C15.6387059,62.9611885 15.5280014,63.2879943 15.5726416,63.6174662 C15.6172819,63.9469382 15.8122424,64.241993 16.1006944,64.4166255 C17.1938413,65.0768098 18.3405186,65.3899742 19.5407263,65.3561186 C19.7931001,65.3520175 20.014089,65.5206238 20.0732128,65.7623858 L33.0388364,116.630436 C33.1386996,117.033796 32.9080495,117.443582 32.5148021,117.561465 L29.9537956,118.323216 C29.3070684,118.506329 28.894862,119.139715 28.9887141,119.806135 C29.0825661,120.472555 29.6536167,120.967084 30.3256909,120.963954 L33.1740711,120.980881 C33.257703,120.979939 33.3337332,121.042232 33.3600187,121.133232 L33.3684709,121.150159 C33.358052,121.217064 33.3089242,121.27282 33.2416884,121.294046 L30.2918822,122.216611 C29.8779364,122.340376 29.6091998,122.740028 29.6503518,123.170664 C29.6915038,123.601299 30.0310526,123.942662 30.4609256,123.985567 L34.6447481,124.468009 C34.5771307,124.626002 34.4954265,124.750139 34.3996352,124.840421 C33.0641929,124.975843 31.9485069,125.325684 31.0525772,125.889944 C30.673435,126.128093 30.5079623,126.596319 30.6531157,127.020271 C30.7982691,127.444223 31.2158296,127.712274 31.6611332,127.667364 L37.9072844,127.057963 C37.9849968,127.048709 38.0544575,127.099678 38.0694651,127.176967 C38.0844728,127.254257 38.0403521,127.333789 37.9664496,127.362663 C36.2253032,127.926923 34.317931,128.573001 32.2443327,129.300897 C31.8653148,129.432255 31.584336,129.753106 31.4988097,130.152212 C31.4132833,130.551318 31.5349861,130.973725 31.8217244,131.272986 C32.0302112,131.487405 32.289411,131.580508 32.5993237,131.552295 C36.3239118,131.241952 38.411597,131.083959 38.8623792,131.078316 C38.9370673,131.06663 39.0070743,131.117787 39.0187443,131.192579 C39.0304143,131.267371 38.9793281,131.337475 38.9046401,131.349161 L33.2332362,133.050405 C32.6429352,133.230746 32.3071624,133.850333 32.4809934,134.438485 L32.5570629,134.692402 C32.7591576,135.356909 33.4182428,135.771663 34.1038094,135.665751 C36.5802942,135.267948 38.9553531,134.937855 40.9078036,134.937855 C38.7440489,134.937855 35.7857906,136.275152 33.7234619,137.400851 C33.4744869,137.541608 33.3498378,137.829393 33.4191839,138.103355 C33.7178271,139.260088 34.6982785,139.76228 36.3605379,139.609929 C37.1606763,139.536575 37.6593542,139.576074 37.8565714,139.728424 C37.9267364,139.779979 37.9581607,139.869339 37.9357371,139.953544 C37.9133135,140.037749 37.8416289,140.099575 37.7551454,140.1093 C36.650729,140.244722 35.6899993,140.670738 34.8729566,141.387349 C34.1348007,142.036248 34.1714267,142.71336 34.9828347,143.418685 C36.1999467,144.476673 40.0710391,143.452541 41.7192116,143.232479 C41.8267163,143.216171 41.933886,143.263908 41.9937798,143.354782 C42.0536737,143.445656 42.0553728,143.563101 41.9981331,143.655674 C41.4656466,144.569776 39.1413007,144.832157 36.8507636,145.27228 C36.5497248,145.32983 36.2951355,145.529761 36.1675566,145.808807 C36.0399777,146.087853 36.0551972,146.411482 36.2083989,146.677287 L36.4112509,147.032771 C36.6591134,147.460609 37.129481,147.702754 37.6114586,147.650636 L40.2485346,147.396719 C40.5006221,147.37308 40.7314983,147.539253 40.7894732,147.786058 L42.6658542,155.115797 C42.7993192,155.644936 42.6808059,156.207094 42.3446719,156.6393 C39.831561,159.855582 38.7919445,162.532997 39.2258224,164.671543 C39.3249011,165.176674 39.1555356,165.698276 38.7778576,166.051159 C33.2924014,171.1295 29.2691701,177.63824 27.1730327,184.942587 C26.102425,188.694917 25.4656951,191.231267 25.2628431,192.551635 C22.4567238,210.794165 22.2454196,229.33011 24.6289306,248.15947 C25.5333124,255.303003 26.1841292,260.313633 27.7984931,266.11987 C31.1004729,277.974975 37.5297543,287.764888 47.0863374,295.489609 C56.1724165,302.84474 69.5099355,306.061023 81.3852297,307.220577 C101.543647,309.192666 120.307457,308.591729 140.71944,306.729671 C164.317889,304.571376 184.552376,302.4554 207.931069,298.587397 C217.267896,297.041325 226.215923,294.521903 234.77515,291.029133 C252.000666,284.004094 261.323406,269.886306 263.343473,251.858195 C265.163507,235.607504 266.076341,219.379383 266.081975,203.173832 C266.081975,190.097104 264.011195,178.146074 257.215653,166.736735 C251.231519,156.681619 239.14492,149.631189 227.742947,147.015843 C227.367361,146.927568 227.069819,146.645806 226.965348,146.279484 C226.322983,143.999873 224.928376,142.515869 222.781526,141.827472 C222.465579,141.722851 222.262729,141.414652 222.2913,141.082648 L223.229491,130.748224 C223.256245,130.46971 223.445495,130.233649 223.711264,130.147287 C225.125593,129.707164 226.54274,128.863595 227.962704,127.61658 C228.347748,127.276392 228.597004,126.814001 228.652843,126.336316 C228.708682,125.858631 228.566268,125.40701 228.25853,125.085874 C228.083852,124.905311 227.649974,124.761424 226.956896,124.654215 C225.694706,124.456724 222.939299,123.90657 218.690677,123.003754 C218.570222,122.974433 218.49517,122.854182 218.521634,122.732909 L218.530086,122.724445 C218.540043,122.676583 218.569247,122.634942 218.610826,122.609319 C218.652405,122.583696 218.702688,122.576355 218.749842,122.589023 C221.86024,123.463626 224.934011,123.923498 227.971156,123.968639 C228.484329,123.970466 228.920747,123.594136 228.995105,123.08567 C229.069463,122.577205 228.759129,122.091366 228.266982,121.945766 L225.283367,121.10784 C225.242733,121.096493 225.214951,121.061717 225.21575,121.023201 L225.21575,121.014737 C225.242013,120.972411 225.286825,120.946769 225.33408,120.947026 L228.25853,120.963954 C228.720434,120.963223 229.123505,120.650061 229.238981,120.202202 C229.565798,118.887476 229.095294,118.176509 227.827469,118.069299 C227.776756,118.063657 225.708793,117.7251 221.623579,117.053631 C221.571934,117.04501 221.525775,117.016796 221.495547,116.975375 C221.46532,116.933953 221.453581,116.882828 221.462988,116.833569 L221.462988,116.825106 C221.476177,116.72546 221.565961,116.654282 221.66584,116.664291 C225.024167,116.974635 227.216096,117.121342 228.241625,117.104414 C229.284059,117.081844 229.796824,116.4668 229.77992,115.259284 C229.773921,114.571117 229.247345,113.999868 228.562808,113.938915 L221.9025,113.329514 C221.808423,113.324078 221.732584,113.254224 221.718587,113.160116 C221.70459,113.066007 221.756032,112.97182 221.843335,112.931711 C223.559125,112.220743 227.185104,112.957102 228.49519,113.092525 C228.86546,113.132717 229.236401,113.02293 229.525358,112.787627 C229.814316,112.552324 229.997281,112.211057 230.033485,111.839867 L230.050389,111.670589 C230.087832,111.288551 229.968495,110.907694 229.719808,110.61556 C229.471122,110.323426 229.114477,110.145145 228.731851,110.121695 C225.525662,109.907276 222.719543,109.501009 220.313493,108.902893 C221.153075,108.790041 221.930674,108.804148 222.646291,108.945213 C224.886115,109.376872 226.475122,109.207594 229.433381,109.436119 C229.767829,109.461095 230.095947,109.33523 230.328138,109.092891 C230.56033,108.850553 230.672342,108.517055 230.633588,108.183462 L230.625136,108.115751 C230.525119,107.288171 229.871538,106.637183 229.044581,106.541465 C227.252722,106.338331 225.680619,105.999775 224.328272,105.525797 C226.362427,105.841782 228.219086,105.963098 229.89825,105.889744 C230.253644,105.873952 230.579412,105.686838 230.772461,105.387616 C230.965511,105.088394 231.001951,104.714096 230.870249,104.38317 L230.79418,104.205428 C230.441974,103.32037 229.615736,102.712964 228.664234,102.639606 C225.412967,102.402617 223.440795,102.23616 222.747717,102.140236 C222.663195,102.128951 222.623752,102.075346 222.629387,101.979422 C222.629387,101.960724 222.644523,101.945566 222.663195,101.945566 L229.991224,101.979422 C230.784784,102.016818 231.458365,101.402932 231.495709,100.60827 C231.533054,99.8136074 230.920019,99.139091 230.126458,99.1016951 L225.64681,98.6954279 C225.500544,98.6636813 225.39905,98.5301356 225.407468,98.3805029 C225.415887,98.2308702 225.531718,98.1095852 225.680619,98.0944908 C227.506287,98.1396316 229.115016,98.0747417 230.506806,97.8998211 C231.115362,97.8264673 231.515431,97.4540556 231.707014,96.782586 C231.914047,96.0706664 231.532306,95.3326179 230.853345,95.1321252 C229.855989,94.8330673 228.416303,94.5819716 226.534288,94.3788379 C226.453579,94.3699579 226.394056,94.2991769 226.399053,94.2180238 C226.410307,94.2014239 226.426312,94.1918078 226.441314,94.1926321 L230.904058,93.769437 C231.346976,93.7278902 231.732633,93.4492643 231.911677,93.0414631 C232.09072,92.6336619 232.035032,92.1607267 231.766179,91.8058118 C231.326666,91.1286996 230.498354,90.719611 229.281242,90.578546 C227.703504,90.3923402 226.475122,90.1525296 225.596097,89.8591143 C227.664061,89.9663238 229.393937,89.9719664 230.785727,89.8760422 C231.30143,89.8414372 231.771453,89.5677862 232.056623,89.1361174 C232.341792,88.7044486 232.409427,88.1642326 232.2395,87.6754277 C231.639396,85.9657195 228.76566,84.027486 227.67533,83.248807 C227.360922,83.0238241 227.190146,82.6495314 227.227365,82.2669944 L231.394283,36.1895129 C231.434556,35.7798138 231.7663,35.4583261 232.180335,35.4277617 C233.777794,35.317731 236.000714,34.5982993 235.070976,32.9139828 C235.037167,32.8462716 234.684994,32.6741723 234.014455,32.3976848 C233.909587,32.3520847 233.839095,32.2514673 233.831964,32.1372035 C233.824832,32.0229397 233.882265,31.914316 233.980646,31.8559951 C234.375081,31.6246485 234.727255,31.4948686 235.037167,31.4666556 C235.484883,31.422303 235.844341,31.0969074 235.943275,30.6464115 C236.04221,30.1959157 235.860462,29.7121106 235.485132,29.4268553 C235.406245,29.3647867 235.045619,29.1475465 234.403255,28.7751349 C234.307703,28.7176058 234.249963,28.6134862 234.251705,28.5018526 C234.253447,28.390219 234.314407,28.2879567 234.411707,28.2334451 C234.496229,28.1883043 234.715985,28.1177718 235.070976,28.0218476 C235.671362,27.8620822 236.121692,27.3725332 236.242014,26.7488256 C236.362336,26.1251181 236.133028,25.46896 235.645723,25.0425541 C234.896298,24.3823698 234.011638,23.9817451 232.991743,23.8406801 C234.039812,23.8576079 234.989272,23.7701476 235.840123,23.5782991 C236.335354,23.4690668 236.692646,23.0389488 236.710496,22.5305222 C236.728345,22.0220956 236.40228,21.5627475 235.916193,21.4115403 C234.901933,21.1068398 233.504508,20.7908541 231.723918,20.4635833 L231.723918,20.4551194 C233.143882,20.4720472 234.465237,20.4015146 235.687984,20.2435218 C236.093215,20.1868666 236.42496,19.9011701 236.533201,19.5156263 C237.034696,17.7269217 237.040331,15.9833579 236.550105,14.2849349 C234.935741,8.66490411 227.582356,10.9755493 227.28653,16.1131377 C227.275351,16.3672902 227.336918,16.6197713 227.464026,16.8410333 L227.937347,17.6704957 C228.010277,17.7959597 228.027089,17.9463728 227.983665,18.0848785 C227.940241,18.2233841 227.840593,18.3371833 227.709139,18.3983912 C226.869557,18.7764455 226.613175,19.5240902 226.939992,20.6413252 C227.021798,20.9300254 226.994744,21.2400762 226.863922,21.5131071 C226.075053,23.183317 226.613175,24.3795485 228.478286,25.1018015 C228.521415,25.1203839 228.546171,25.1661798 228.538126,25.2125017 C228.530081,25.2588235 228.491339,25.2935612 228.444477,25.2964712 C227.323157,25.313399 226.618809,25.7140237 226.331436,26.4983453 C226.2319,26.7653766 226.318327,27.0630964 226.54274,27.2262408 L227.514739,27.9626003 C227.683375,28.0934027 227.75414,28.3159908 227.691622,28.5189792 C227.629105,28.7219677 227.446753,28.861694 227.235817,28.8682378 C226.396236,28.8964508 225.953906,29.2039725 225.908827,29.7908031 C225.876898,30.1575219 226.061414,30.5105691 226.382149,30.6964406 C226.387783,30.7020832 226.418775,30.7161897 226.475122,30.7387601 C226.629169,30.7995756 226.74545,30.9297223 226.788737,31.0897723 C226.832023,31.2498222 226.797223,31.4209434 226.694879,31.5512947 C225.860932,32.6008185 225.832758,33.4556726 226.610357,34.1158569 C227.328791,34.7252578 228.68959,34.9791749 229.120651,35.3261949 C229.310379,35.479764 229.411699,35.7175624 229.39112,35.9609875 L225.105872,83.3165182 C225.074176,83.6375592 225.208849,83.9490214 225.460862,84.1375167 L229.036129,86.8290375 C229.142998,86.9120769 229.186458,87.0532664 229.14482,87.1821452 C229.103182,87.311024 228.985371,87.3999653 228.850181,87.4045828 C228.100756,87.4215106 225.736967,87.3989402 221.758814,87.3368716 C219.75565,87.303016 217.8032,90.1045675 220.600867,91.0525245 C220.707927,91.0920227 222.440622,91.3910806 225.798949,91.9496981 C225.882973,91.9567099 225.945412,92.0306035 225.93841,92.1147442 C225.931408,92.1988849 225.857617,92.2614103 225.773593,92.2543986 L220.271232,92.2543986 C219.666843,92.2557409 219.137699,92.6609421 218.978051,93.2446751 L218.893529,93.5916951 C218.810416,93.9190259 218.875056,94.2663931 219.070324,94.5417778 C219.265592,94.8171625 219.571784,94.9927748 219.907789,95.0220945 C221.761631,95.1800873 223.719716,95.5073582 225.782045,96.0039071 C222.682917,96.0829035 220.637493,96.1675425 219.645772,96.2578241 C219.114196,96.3073536 218.68037,96.7048521 218.584003,97.2306839 C218.487636,97.7565157 218.752242,98.2823688 219.231616,98.5176859 C220.524797,99.1524786 222.840691,100.02426 224.302916,100.02426 C222.933665,100.049652 221.454536,99.7872712 219.713389,99.8465185 C218.838882,99.8773776 218.124603,100.55634 218.048312,101.429268 L217.989147,102.10638 C217.946994,102.571431 218.091977,103.034091 218.391907,103.391646 C218.691837,103.749201 219.121895,103.972065 219.586607,104.010758 C221.598222,104.180036 222.711091,104.380349 222.925213,104.611695 C222.959518,104.64994 222.967406,104.705127 222.94519,104.751473 C222.922975,104.797818 222.875043,104.826174 222.823787,104.823293 L218.35259,104.823293 C218.113152,104.822634 217.913909,105.007375 217.896173,105.246488 L217.870817,105.534261 C217.854379,105.716461 217.914177,105.897322 218.035946,106.0337 C218.157715,106.170078 218.330536,106.249743 218.513182,106.253692 L222.705456,106.355259 C222.790939,106.355395 222.861532,106.426086 222.866047,106.516073 C222.863723,106.551306 222.847821,106.584104 222.822161,106.606587 C222.796501,106.629071 222.763401,106.63921 222.730813,106.634568 C220.279684,106.338331 216.552279,106.92234 217.186191,110.265582 C217.245364,110.577426 217.497435,110.816203 217.811652,110.858055 C218.087756,110.897553 218.290608,110.942694 218.420208,110.993477 C218.540572,111.044427 218.622081,111.158848 218.63101,111.2894 C218.63994,111.419953 218.574772,111.544434 218.462469,111.611342 L217.482017,112.178423 C217.037219,112.439839 216.794887,112.94502 216.869124,113.456104 C216.94336,113.967188 217.319368,114.382305 217.820104,114.505996 L220.482536,115.140789 C220.570373,115.16104 220.635712,115.234855 220.645247,115.324608 C220.654782,115.414361 220.606413,115.50029 220.524797,115.538592 C220.226154,115.6853 219.417563,115.730441 218.099025,115.674015 C217.669567,115.657265 217.251858,115.801805 216.950258,116.071522 C216.648658,116.34124 216.491653,116.71066 216.51847,117.087487 C216.552279,117.510682 216.84247,117.809739 217.389043,117.98466 C217.84546,118.125725 219.158364,118.469924 221.327753,119.017256 C221.417584,119.036326 221.481839,119.115739 221.481839,119.207694 C221.481839,119.299649 221.417584,119.379062 221.327753,119.398132 L217.329878,120.422264 C216.656824,120.594959 216.165762,121.171487 216.104314,121.861127 L215.943723,123.596227 C215.841115,124.746123 216.688722,125.761632 217.837008,125.864553 L224.446603,126.46549 C224.610925,126.481711 224.740995,126.611779 224.757425,126.776306 C224.773855,126.940833 224.672081,127.094118 224.51422,127.142602 L222.891404,127.633508 C221.849936,127.944611 221.10313,128.860131 221.006571,129.944153 L220.000763,140.981081 C219.968942,141.351892 219.719651,141.668099 219.36685,141.785152 C218.031408,142.230918 216.811479,143.057559 215.707062,144.265075 C215.505754,144.487728 215.206294,144.598209 214.904106,144.561312 C197.295426,142.23656 179.793806,141.215249 162.399247,141.497379 C150.357727,141.689228 140.110884,141.993928 131.658717,142.411481 C113.97115,143.291727 95.6271305,145.458485 76.6266599,148.911757 C72.9133413,149.58887 68.0674324,150.731496 62.0889332,152.339638 C57.5754762,153.552797 53.9748532,155.050908 51.2870642,156.83397 C50.9906862,157.030541 50.601571,157.013451 50.3235172,156.79165 C48.9711706,155.6857 47.3821632,155.324574 45.5564952,155.708271 C45.2189384,155.778792 44.8869022,155.573316 44.8042524,155.242756 L42.6574021,146.804246 C42.5905069,146.560092 42.6846842,146.297377 42.8940627,146.144062 C43.5984099,145.613657 44.6239395,144.767267 45.9706514,143.604891 C46.5566427,143.096006 46.6341095,142.198359 46.1481469,141.548163 C45.2015042,140.270114 41.9981331,141.048793 40.2147259,141.361957 C40.193292,141.36219 40.1686266,141.34984 40.1471086,141.328101 C40.1302042,141.316816 40.1132999,141.311174 40.0963956,141.311174 C40.0704408,141.304864 40.0556215,141.281544 40.059423,141.252993 C40.0632245,141.224442 40.0848194,141.196875 40.1132999,141.184215 C42.3784806,140.507103 43.9308618,139.940021 44.7704437,139.482971 C45.1940662,139.252707 45.4309422,138.783742 45.3651457,138.305584 C45.2993492,137.827427 44.9446427,137.440092 44.4746179,137.33314 C43.0208452,137.011511 41.5332639,136.997405 40.0118739,137.29082 C39.9120404,137.308356 39.816382,137.249408 39.7921176,137.155398 L39.7836654,137.146934 C39.7878427,137.095707 39.8237964,137.049885 39.8766392,137.028439 L43.7815402,135.521865 C44.0460342,135.41576 44.2395057,135.187083 44.2971224,134.912464 C44.5760439,133.439745 43.8068967,132.931911 42.4122892,132.965766 C41.7980984,132.982694 41.2205337,132.948839 40.6795951,132.8642 C40.614176,132.852611 40.5652203,132.797623 40.5612013,132.731218 C40.5571823,132.664812 40.5991481,132.604306 40.6626907,132.584891 L42.2347937,132.110912 C42.8612032,131.926581 43.2847632,131.342508 43.2659581,130.688977 C43.1898886,128.386795 41.3726727,128.920021 39.8428306,128.649176 C39.7758322,128.641594 39.7218095,128.590757 39.710092,128.524266 C39.6983746,128.457775 39.7317579,128.391492 39.7921176,128.361404 L41.8459941,127.167994 C42.26221,126.933462 42.4716267,126.452029 42.3601609,125.985965 C42.2486951,125.519901 41.8430554,125.180877 41.3642206,125.153585 L38.6595272,124.992771 Z" id="Shape" fill="#EFEFEF"></path>
            <path d="M218,5 C218.787647,3.98606589 219.656294,3.03206878 220.60594,2.13800866 C220.666671,2.07957274 220.741633,2.0323132 220.806733,2.01141783 C220.871834,1.99052247 220.918872,1.99862403 220.93273,2.03311892 C220.943902,2.05809267 220.960661,2.08306641 220.983005,2.10804016 C221.013166,2.13650984 221.002207,2.19203882 220.957868,2.23540627 L218,5 Z" id="Path" fill="#ECEAE2"></path>
            <path d="M217.985,5 L217.015,7 L217.985,5 Z" id="Path" fill="#ECEAE2"></path>
            <path d="M217,7 C215.584071,11.5371229 214.713864,16.15644 214.389381,20.8579514 C214.38853,20.9007115 214.365656,20.9406165 214.326645,20.9673975 C214.287634,20.9941786 214.236296,21.0052204 214.185841,20.9976817 C214.061947,20.9702836 214,20.9100078 214,20.8168543 C214.088496,16.0331486 215.088496,11.4275305 217,7 Z" id="Path" fill="#ECEAE2"></path>
            <path d="M34.4083002,124.659131 C35.8108109,124.95213 37.2302194,125.002842 38.6665256,124.811265 L41.3701608,124.971851 C41.8488083,124.999105 42.2542893,125.337647 42.3657115,125.803051 C42.4771337,126.268455 42.2677989,126.749204 41.8517458,126.983404 L39.7986728,128.175122 C39.7383367,128.205168 39.7049665,128.271356 39.7166794,128.337753 C39.7283923,128.40415 39.7823939,128.454915 39.849366,128.462486 C41.3786096,128.732947 43.1951145,128.200477 43.2711543,130.499394 C43.2899521,131.151999 42.8665577,131.735243 42.2403933,131.919314 L40.6689054,132.39262 C40.6053876,132.412008 40.5634383,132.472428 40.5674557,132.538739 C40.5714731,132.605051 40.6204096,132.65996 40.6858031,132.671533 C41.2265302,132.756052 41.8038689,132.789859 42.4178194,132.772956 C43.8118813,132.739148 44.5807275,133.246262 44.3019152,134.716893 C44.244321,134.991123 44.0509252,135.219476 43.7865347,135.32543 L39.8831614,136.829868 C39.8303393,136.851283 39.7943996,136.897041 39.790224,136.948195 L39.7986728,136.956647 C39.8229278,137.050523 39.9185487,137.109388 40.0183432,137.091877 C41.539138,136.798878 43.0261373,136.812964 44.4793412,137.134136 C44.9491821,137.240937 45.3037499,137.627723 45.3695206,138.105202 C45.4352914,138.582682 45.1985081,139.050982 44.7750513,139.280919 C43.9357979,139.737322 42.384024,140.303599 40.1197295,140.979751 C40.0912601,140.992393 40.0696737,141.019921 40.0658737,141.048432 C40.0620737,141.076942 40.0768872,141.100229 40.1028318,141.10653 C40.1197295,141.10653 40.1366272,141.112164 40.1535249,141.123434 C40.1750346,141.145141 40.1996903,141.157474 40.2211158,141.157241 C42.0038253,140.844521 45.2059432,140.066946 46.1522155,141.343183 C46.637988,141.992457 46.5605515,142.888831 45.9747894,143.396995 C44.6286044,144.557723 43.6034761,145.402913 42.8994044,145.932565 C42.6901078,146.085663 42.5959673,146.348006 42.6628363,146.591813 L44.8088468,155.018358 C44.8914642,155.34845 45.2233706,155.553634 45.5607953,155.483213 C47.385749,155.10006 48.9741347,155.460674 50.3259523,156.565056 C50.6038973,156.786543 50.9928603,156.803609 51.2891223,156.607316 C53.9758598,154.826782 57.5750741,153.330795 62.0867653,152.119356 C68.0629256,150.513495 72.9069386,149.372489 76.6188044,148.696337 C95.6118416,145.247961 113.948684,143.084275 131.629332,142.205277 C140.078191,141.788316 150.321026,141.484048 162.357835,141.292472 C179.745589,141.010742 197.240362,142.030604 214.842153,144.35206 C215.144223,144.388904 215.443565,144.27858 215.644795,144.056243 C216.748779,142.850439 217.968231,142.02497 219.303151,141.579836 C219.655814,141.462949 219.905007,141.14719 219.936816,140.776906 L220.94223,129.755627 C221.038752,128.673142 221.785266,127.75892 222.826326,127.448258 L224.448507,126.958048 C224.606306,126.909632 224.70804,126.756566 224.691617,126.592271 C224.675193,126.427977 224.545174,126.298094 224.380916,126.281896 L217.773907,125.681811 C216.626071,125.579037 215.778795,124.564967 215.881363,123.416702 L216.041891,121.684062 C216.103315,120.9954 216.594185,120.419689 217.266976,120.247239 L221.263287,119.224559 C221.353082,119.205517 221.417312,119.126215 221.417312,119.034391 C221.417312,118.942567 221.353082,118.863266 221.263287,118.844223 C219.094746,118.297667 217.782356,117.953956 217.326118,117.813091 C216.779758,117.638419 216.489681,117.339785 216.455885,116.91719 C216.429079,116.540898 216.586022,116.172001 216.887504,115.902666 C217.188986,115.633331 217.606532,115.488997 218.035822,115.505723 C219.353844,115.562069 220.162119,115.516992 220.460645,115.370492 C220.542229,115.332244 220.590579,115.246437 220.581047,115.156811 C220.571516,115.067186 220.506203,114.993475 220.418401,114.973253 L217.75701,114.33936 C217.256469,114.215844 216.880609,113.801316 216.806401,113.290957 C216.732194,112.780597 216.974431,112.276132 217.419055,112.015088 L218.399123,111.44881 C218.511383,111.381997 218.576525,111.257692 218.567599,111.127325 C218.558673,110.996958 218.477196,110.882699 218.356879,110.831822 C218.22733,110.78111 218.024557,110.736033 217.748561,110.696591 C217.434467,110.654799 217.182494,110.416361 217.123345,110.104958 C216.489681,106.766457 220.215628,106.183276 222.665797,106.479093 C222.698373,106.483728 222.73146,106.473604 222.75711,106.451152 C222.78276,106.4287 222.798656,106.395949 222.800979,106.360766 C222.796465,106.270906 222.7259,106.200316 222.640451,106.20018 L218.449816,106.098757 C218.267242,106.094814 218.094489,106.015261 217.972768,105.879077 C217.851046,105.742892 217.791272,105.562287 217.807703,105.380346 L217.833049,105.092981 C217.850778,104.854207 218.049943,104.669728 218.289288,104.670386 L222.758735,104.670386 C222.809971,104.673263 222.857885,104.644948 222.880091,104.598668 C222.902298,104.552388 222.894413,104.497279 222.860121,104.459088 C222.646083,104.22807 221.53365,104.028041 219.522821,103.859003 C219.058292,103.820365 218.628402,103.597818 218.328589,103.240769 C218.028776,102.883721 217.883851,102.421717 217.925987,101.957326 L217.985129,101.281174 C218.06139,100.409483 218.775389,99.7314836 219.649554,99.7006683 C221.39002,99.641505 222.86857,99.9035139 224.237285,99.8781582 C222.775633,99.8781582 220.460645,99.0076124 219.167969,98.3737199 C218.688784,98.1387365 218.42428,97.6136289 218.52061,97.0885427 C218.616939,96.5634565 219.050595,96.1665216 219.581963,96.1170624 C220.573296,96.0269088 222.61792,95.9423898 225.715836,95.8635054 C223.654314,95.3676605 221.696995,95.0408537 219.843878,94.8830849 C219.508005,94.8538069 219.201933,94.6784436 219.006741,94.4034493 C218.811549,94.128455 218.746935,93.7815805 218.830015,93.4547137 L218.914504,93.1081858 C219.07409,92.5252805 219.603027,92.1206538 220.207179,92.1193134 L225.707387,92.1193134 C225.791378,92.1263151 225.86514,92.0638784 225.87214,91.979857 C225.879139,91.8958356 225.816725,91.8220468 225.732734,91.815045 C222.37572,91.2572195 220.643704,90.9585857 220.536685,90.9191435 C217.740112,89.9725306 219.691799,87.1749515 221.694178,87.2087591 C225.670775,87.2707397 228.03364,87.2932781 228.782772,87.2763743 C228.917909,87.2717633 229.035673,87.1829481 229.077295,87.0542521 C229.118917,86.925556 229.075474,86.7845667 228.968647,86.701645 L225.394779,84.0139406 C225.142864,83.8257126 225.008244,83.514692 225.039927,83.1941063 L229.323499,35.9057219 C229.34407,35.662642 229.24279,35.4251807 229.053135,35.2718293 C228.622244,34.9253014 227.261977,34.6717444 226.543824,34.0632076 C225.766529,33.4039593 225.794692,32.5503173 226.628313,31.5022816 C226.730617,31.3721152 226.765404,31.2012367 226.722134,31.0414137 C226.678864,30.8815906 226.562629,30.7516285 226.408642,30.6908992 C226.352317,30.6683608 226.321337,30.6542743 226.315705,30.6486397 C225.995096,30.4630317 225.810652,30.1104852 225.842569,29.7442863 C225.887629,29.1582879 226.329786,28.8512021 227.16904,28.8230291 C227.379893,28.8164946 227.562174,28.6769664 227.624666,28.4742658 C227.687159,28.2715652 227.616422,28.0492927 227.447852,27.9186758 L226.476233,27.1833604 C226.251908,27.0204473 226.165515,26.7231496 226.265012,26.4564969 C226.552273,25.6732875 227.256345,25.2732308 228.377227,25.256327 C228.42407,25.2534211 228.462797,25.2187328 228.470839,25.1724766 C228.47888,25.1262204 228.454135,25.0804894 228.411022,25.0619333 C226.54664,24.3407045 226.00873,23.1461692 226.79729,21.4783274 C226.92806,21.2056836 226.955104,20.8960725 226.87333,20.6077817 C226.54664,19.4921308 226.802922,18.7455462 227.642176,18.368028 C227.773579,18.3069069 227.873188,18.1932691 227.916595,18.0549598 C227.960002,17.9166505 227.943196,17.7664506 227.870295,17.6411645 L227.397159,16.8128782 C227.270101,16.59193 227.208558,16.3398069 227.219733,16.0860148 C227.515443,10.9557111 234.865951,8.64834218 236.479683,14.2604042 C236.969717,15.956419 236.964085,17.6975105 236.462786,19.4836789 C236.354587,19.868676 236.022972,20.1539675 235.6179,20.2105423 C234.395631,20.3683111 233.074793,20.4387436 231.655384,20.4218398 L231.655384,20.4302917 C233.435278,20.7570986 234.832156,21.0726362 235.846019,21.3769046 C236.331916,21.5278975 236.657854,21.9865942 236.640011,22.4942999 C236.622169,23.0020056 236.265016,23.4315138 235.769979,23.5405912 C234.919461,23.7321676 233.970372,23.8195039 232.922713,23.8026001 C233.942209,23.9434651 234.826523,24.3435218 235.575655,25.00277 C236.06277,25.4285713 236.291988,26.083799 236.171713,26.7066221 C236.051438,27.3294453 235.601284,27.8183002 235.001133,27.9778391 C234.646281,28.0736273 234.42661,28.1440598 234.342122,28.1891366 C234.24486,28.2435708 234.183923,28.3456881 234.182182,28.4571635 C234.180441,28.5686388 234.238159,28.6726107 234.333673,28.7300582 C234.975786,29.1019418 235.336271,29.318874 235.415127,29.3808546 C235.79031,29.6657054 235.971987,30.1488245 235.873091,30.5986816 C235.774195,31.0485387 235.414878,31.3734729 234.967337,31.4177626 C234.657546,31.4459356 234.30551,31.5755314 233.91123,31.8065501 C233.812887,31.8647883 233.755477,31.973258 233.762605,32.0873597 C233.769734,32.2014615 233.840198,32.3019362 233.945025,32.3474717 C234.615302,32.6235671 234.967337,32.7954224 235.001133,32.8630377 C235.930507,34.5449659 233.708457,35.2633774 232.111623,35.3732522 C231.69775,35.4037732 231.366136,35.7248051 231.325879,36.1339232 L227.160591,82.1460706 C227.123386,82.5280651 227.294095,82.9018272 227.60838,83.126491 C228.698283,83.9040659 231.570896,85.8395512 232.170765,87.5468351 C232.340625,88.034947 232.273017,88.5743969 231.987959,89.0054537 C231.702901,89.4365104 231.233062,89.7097734 230.717561,89.7443293 C229.326315,89.8401175 227.597115,89.8344829 225.529961,89.7274255 C226.408642,90.0204247 227.636543,90.2598952 229.213664,90.445837 C230.4303,90.5867021 231.258288,90.9952106 231.697629,91.6713626 C231.966376,92.0257744 232.022043,92.4980389 231.843069,92.9052619 C231.664096,93.3124849 231.278589,93.5907157 230.835845,93.6322036 L226.374847,94.0547986 C226.359851,94.0539755 226.343852,94.063578 226.332603,94.0801543 C226.327608,94.1611924 226.387107,94.231873 226.467784,94.2407405 C228.349064,94.4435861 229.788186,94.6943258 230.785152,94.9929596 C231.463847,95.1931681 231.845439,95.9301701 231.638487,96.6410803 C231.446979,97.3115977 231.047066,97.6834813 230.438749,97.7567311 C229.047503,97.9314038 227.439403,97.9962017 225.614449,97.9511249 C225.465607,97.9661978 225.349821,98.0873109 225.341406,98.2367314 C225.332991,98.3861519 225.434445,98.5195082 225.580654,98.5512098 L230.05855,98.956901 C230.8518,98.9942439 231.464595,99.6678039 231.427265,100.461339 C231.389936,101.254875 230.716618,101.86789 229.923368,101.830547 L222.598206,101.79674 C222.579542,101.79674 222.564411,101.811876 222.564411,101.830547 C222.558778,101.926335 222.598206,101.979864 222.682695,101.991133 C223.375502,102.086922 225.346902,102.253142 228.596897,102.489796 C229.548027,102.56305 230.373942,103.169594 230.72601,104.053397 L230.802049,104.230887 C230.933699,104.561344 230.897274,104.935112 230.7043,105.233909 C230.511326,105.532707 230.185686,105.719555 229.830431,105.735325 C228.151924,105.808575 226.295991,105.687431 224.262632,105.371894 C225.614449,105.8452 227.185937,106.183276 228.977096,106.386122 C229.803729,106.481704 230.457054,107.131769 230.557033,107.958175 L230.565481,108.02579 C230.604219,108.358911 230.492251,108.691936 230.260151,108.933931 C230.02805,109.175925 229.700061,109.301612 229.365743,109.276672 C226.408642,109.04847 224.820257,109.217508 222.581309,108.786462 C221.865972,108.645597 221.088677,108.63151 220.249423,108.744202 C222.654532,109.34147 225.459554,109.747161 228.664488,109.961276 C229.046964,109.984692 229.403469,110.16272 229.652059,110.45444 C229.900648,110.74616 230.019939,111.126477 229.98251,111.507974 L229.965612,111.677012 C229.929423,112.047675 229.74653,112.388458 229.457685,112.623427 C229.16884,112.858397 228.798045,112.968028 228.42792,112.927893 C227.118347,112.792662 223.493786,112.057347 221.778667,112.767307 C221.691398,112.80736 221.639976,112.901412 221.653968,112.995388 C221.667959,113.089363 221.743769,113.159118 221.837809,113.164546 L228.495511,113.773083 C229.17978,113.833949 229.706151,114.404389 229.712147,115.091579 C229.729044,116.297384 229.21648,116.911555 228.174454,116.934094 C227.149326,116.950998 224.958255,116.804498 221.601241,116.494595 C221.501401,116.4846 221.411652,116.555677 221.398468,116.655181 L221.398468,116.663633 C221.389066,116.712821 221.4008,116.763875 221.431015,116.805237 C221.461231,116.846599 221.507373,116.874773 221.558997,116.883382 C225.642612,117.5539 227.709767,117.891976 227.76046,117.89761 C229.027789,118.004668 229.498109,118.714628 229.17142,120.027489 C229.055989,120.474713 228.653075,120.787431 228.191352,120.788161 L225.268046,120.771257 C225.220809,120.771 225.176015,120.796606 225.149762,120.838872 L225.149762,120.847324 C225.148963,120.885786 225.176735,120.920513 225.217353,120.931843 L228.199801,121.768581 C228.691756,121.913974 229.001968,122.399124 228.927639,122.906869 C228.85331,123.414613 228.417063,123.79041 227.904091,123.788585 C224.868134,123.743508 221.795565,123.284289 218.686384,122.410925 C218.639249,122.398276 218.588986,122.405606 218.547423,122.431193 C218.50586,122.456779 218.476667,122.498362 218.466714,122.546156 L218.458265,122.554608 C218.431812,122.675709 218.506835,122.795789 218.627242,122.825069 C222.874203,123.726605 225.628531,124.275978 226.890227,124.473189 C227.583034,124.580247 228.016742,124.723929 228.191352,124.904236 C228.49897,125.224917 228.641328,125.675897 228.585511,126.152905 C228.529694,126.629913 228.280535,127.091649 227.895642,127.431354 C226.476233,128.676601 225.059641,129.518974 223.645865,129.958473 C223.3802,130.044713 223.191024,130.280439 223.16428,130.558558 L222.226457,140.878328 C222.197897,141.209862 222.400667,141.517624 222.716491,141.622096 C224.862501,142.309517 226.256563,143.791417 226.898676,146.067795 C227.003106,146.433598 227.300532,146.714961 227.675971,146.803111 C239.073483,149.414748 251.155353,156.455181 257.137146,166.496039 C263.930029,177.889202 266,189.823285 266,202.881472 C265.994367,219.064044 265.081891,235.269155 263.262569,251.496805 C261.243292,269.499353 251.924199,283.597123 234.705423,290.612201 C226.149544,294.100019 217.205018,296.615868 207.871844,298.159748 C184.502297,302.022267 164.275726,304.135242 140.686509,306.290477 C120.282513,308.149895 101.526044,308.74998 81.3755126,306.780687 C69.5048644,305.622777 56.1725634,302.411054 47.090039,295.066353 C37.5371946,287.352585 31.1104285,277.576553 27.8097406,265.738257 C26.1960083,259.940253 25.5454461,254.936728 24.6414181,247.803324 C22.2588396,229.000662 22.4700611,210.491 25.2750826,192.274337 C25.4778552,190.95584 26.114336,188.423087 27.1845249,184.676078 C29.2798422,177.382088 33.3014995,170.882576 38.7848096,165.811435 C39.1623399,165.459053 39.3316391,164.938191 39.2325992,164.433776 C38.7988911,162.298262 39.8381008,159.624644 42.3502285,156.412922 C42.686231,155.981329 42.804698,155.419968 42.6712852,154.89158 L40.7956383,147.572234 C40.7376861,147.325778 40.5069002,147.159841 40.2549113,147.183446 L37.618867,147.437003 C37.1370779,147.489047 36.6668944,147.247246 36.4191288,146.820015 L36.2163562,146.465035 C36.0632144,146.199607 36.0480009,145.876436 36.1755299,145.597786 C36.3030589,145.319136 36.5575485,145.119488 36.8584696,145.062019 C39.1481106,144.62252 41.4715471,144.360512 42.0038253,143.447706 C42.0610426,143.355264 42.0593441,143.237986 41.9994737,143.147241 C41.9396033,143.056495 41.8324756,143.008826 41.7250129,143.025111 C40.0774852,143.244861 36.2079073,144.267541 34.9912715,143.211053 C34.180181,142.506728 34.1435692,141.830576 34.8814363,141.182597 C35.6981595,140.467003 36.6585132,140.04159 37.7624976,139.90636 C37.8489472,139.89665 37.9206038,139.834911 37.9430186,139.750825 C37.9654335,139.666739 37.9340215,139.577506 37.8638839,139.526024 C37.6667438,139.37389 37.1682611,139.334448 36.3684357,139.407698 C34.7068266,139.559832 33.7267588,139.058353 33.4282324,137.903259 C33.3589135,137.629686 33.4835138,137.34231 33.7323914,137.201752 C35.7939132,136.077649 38.7510142,134.742249 40.9139223,134.742249 C38.9622357,134.742249 36.588106,135.071873 34.1125901,135.469112 C33.4272917,135.574874 32.7684643,135.160708 32.5664487,134.497143 L32.490409,134.243586 C32.316646,133.656268 32.6522874,133.03756 33.2423575,132.857475 L38.9115425,131.158643 C38.9862014,131.146973 39.0372676,131.076968 39.0256021,131.002283 C39.0139367,130.927597 38.9439571,130.876512 38.8692982,130.888182 C38.4186924,130.893816 36.331824,131.051585 32.608693,131.361488 C32.2989015,131.389661 32.0398031,131.29669 31.8313979,131.082576 C31.5447718,130.783739 31.4231166,130.361931 31.5086095,129.963391 C31.5941023,129.564851 31.8749713,129.244455 32.2538409,129.113283 C34.3266279,128.386419 36.2332539,127.741257 37.9737191,127.177797 C38.0475927,127.148964 38.0916962,127.069544 38.0766943,126.992364 C38.0616925,126.915185 37.9922591,126.864288 37.9145771,126.873529 L31.6708696,127.482066 C31.2257402,127.526913 30.808343,127.259242 30.6632463,126.835891 C30.5181497,126.41254 30.6835577,125.944978 31.0625516,125.707167 C31.9581308,125.143707 33.0733803,124.794361 34.4083002,124.659131 Z M62.466964,155.38179 C49.7260833,158.897781 37.855435,167.637046 32.1946989,179.714812 C29.5079614,185.445201 27.8322709,191.65453 27.1676272,198.342801 C26.0777243,209.262657 26.1791106,221.069962 26.3311901,231.448896 C26.4832696,241.557369 27.440807,250.893902 29.2038025,259.458495 C33.4366813,279.988162 47.6983569,296.782089 68.262882,301.565864 C75.9400794,303.352033 81.8570976,304.397251 86.0139367,304.70152 C99.9545556,305.721382 115.30895,305.597421 132.077121,304.329636 C152.788093,302.768852 173.338537,300.607982 193.728452,297.847028 C203.867084,296.47782 212.797529,294.750815 220.519787,292.666013 C227.476015,290.789691 234.637832,287.535709 242.005238,282.904068 C247.789891,279.776864 252.124156,275.086059 255.008033,268.831653 C258.717083,260.776992 259.984412,252.975887 261.040519,243.653441 C262.628905,229.640189 263.217509,215.345208 262.806331,200.768497 C262.721842,197.861043 262.524702,194.993031 262.214911,192.164462 C261.116559,179.765524 256.317607,166.563655 246.187423,158.880877 C236.014996,151.181195 222.310945,147.884954 209.933365,146.558006 C198.702014,145.352201 187.448133,144.650693 176.171721,144.453482 C154.525742,144.075964 132.922007,144.791558 111.360517,146.600265 C96.873538,147.811704 82.5724344,150.150064 68.4572057,153.615343 C66.3562559,154.128091 64.3595087,154.716907 62.466964,155.38179 Z" id="Shape" fill="#181717"></path>
            <circle id="Oval" fill="#ECEAE2" transform="translate(214.500000, 27.500000) rotate(-90.000000) translate(-214.500000, -27.500000) " cx="214.5" cy="27.5" r="1"></circle>
            <path d="M38.0223414,124.933009 C36.7185607,125.068852 35.4597379,124.9981 34.2458731,124.720755 L30.0732129,124.236816 C29.6444868,124.193778 29.3058439,123.851356 29.2648017,123.419385 C29.2237595,122.987413 29.4917792,122.586521 29.9046206,122.462371 L32.8465568,121.536944 C32.9136132,121.515652 32.96261,121.459723 32.973001,121.392611 L32.9645714,121.37563 C32.9383561,121.284348 32.8625286,121.221862 32.7791199,121.222807 L29.9383391,121.205827 C29.268058,121.208967 28.6985309,120.712904 28.6049293,120.044416 C28.5113276,119.375928 28.9224342,118.740577 29.567436,118.556896 L32.1216098,117.792781 C32.5138081,117.674532 32.7438428,117.263474 32.644246,116.858863 L19.7132142,65.8329775 C19.6542481,65.5904652 19.4338488,65.4213358 19.1821483,65.4254496 C17.9851428,65.4594102 16.8415248,65.1452742 15.7512944,64.4830414 C15.463612,64.307867 15.2691716,64.0118967 15.2246504,63.6814025 C15.1801293,63.3509082 15.2905384,63.0230884 15.5236947,62.7934987 C15.7203858,62.5953949 15.9170769,62.4001211 16.1137679,62.2076774 C16.3497972,61.9756129 16.2795504,61.7944894 15.9030275,61.6643069 C14.8633748,61.2963998 14.4531334,60.6369971 14.6723035,59.6860987 C14.731321,59.4310348 14.8926677,59.2102723 15.1190732,59.0748069 L16.1980641,58.4550249 C16.2201596,58.4356604 16.2273185,58.404145 16.2157808,58.3770304 C16.2042431,58.3499159 16.1766473,58.3334023 16.1474864,58.3361626 C15.6641884,58.4437047 15.3298136,58.5653971 15.144362,58.7012397 C15.0380202,58.7849716 14.901614,58.8197905 14.7685128,58.7971784 C14.6354116,58.7745663 14.5178923,58.696609 14.4447038,58.5823774 C14.1412376,58.1125883 14.0063638,57.6088386 14.0400822,57.0711282 C14.068181,56.6352998 14.2480128,56.3211637 14.5795777,56.12872 C14.8718044,55.9645768 15.0656856,55.7325123 15.1612212,55.4325265 C15.1859936,55.3443627 15.1541151,55.2499514 15.0811128,55.1952778 C15.0081105,55.1406041 14.9091635,55.1370362 14.8324662,55.1863118 C14.1299981,55.6391205 13.5876928,55.4862976 13.2055502,54.7278429 C12.6098573,53.5278998 12.7363015,52.6222823 13.5848829,52.0109904 C13.6233844,51.9798266 13.6364276,51.9265723 13.616733,51.8809494 C13.5970384,51.8353264 13.5494743,51.8086124 13.5005868,51.8157167 C12.747541,51.9741997 12.2726726,51.2780063 12.0759816,49.7271363 C11.693839,46.6367166 12.7531608,44.7830308 15.253947,44.1660789 C17.4793658,43.6170483 19.0444646,44.429274 19.9492434,46.602756 C20.5336969,48.0121232 21.1574885,50.6893549 21.8206183,54.6344511 C21.8482724,54.8073511 21.9146575,54.9701452 22.0144995,55.1099003 C22.3404447,55.5740293 22.4809383,56.0296681 22.4359803,56.4768167 C22.4153139,56.7005631 22.2897161,56.8998004 22.0987957,57.011697 L21.365419,57.4362052 C21.2895453,57.4712727 21.2505774,57.5569855 21.27379,57.6377503 C21.2970025,57.7185151 21.3754047,57.7700084 21.4581448,57.7588315 C22.1100352,57.7305309 22.4977975,57.8012823 22.6214319,57.9710856 C22.8462217,58.2767315 22.8743204,58.5993577 22.7057281,58.9389643 C22.5483752,59.2559304 22.4416001,59.5389359 22.3854026,59.7879807 C22.3507972,59.9364568 22.3777248,60.0929032 22.4601413,60.2222049 C22.5425579,60.3515066 22.6735596,60.4428325 22.8237427,60.475684 C23.0991102,60.5322851 23.2873716,60.5973763 23.388527,60.6709577 C23.5121614,60.7558594 23.6048872,60.9652834 23.6667044,61.2992299 C23.9027336,62.5104933 23.2592729,63.5434632 21.7363222,64.3981397 C21.5073671,64.5292435 21.3932315,64.7939893 21.4581448,65.0433922 L34.051992,114.770283 C34.1304791,115.072623 34.4031907,115.280387 34.7095021,115.271202 C36.6707928,115.203281 38.0054821,115.358934 38.7135699,115.738161 C38.998985,115.890147 39.1795955,116.186598 39.1848587,116.511725 C39.1901219,116.836852 39.0192028,117.139075 38.7388588,117.300352 L36.5387289,118.582366 C36.5156084,118.591975 36.5049218,118.616174 36.5130087,118.640609 C36.5210956,118.665044 36.5457919,118.683176 36.5724473,118.684248 L39.1013323,118.684248 C39.5450593,118.688264 39.9314882,118.99025 40.0455798,119.422157 C40.1596714,119.854064 39.9733298,120.309532 39.59025,120.535104 L38.0476302,121.435062 C37.9619177,121.488012 37.9252861,121.594576 37.9601422,121.68957 C37.9949984,121.784564 38.0916318,121.841524 38.1909337,121.825609 C39.8375188,121.536944 40.7675865,121.87655 40.9811368,122.844429 C41.0489492,123.155898 40.9307501,123.479973 40.6776706,123.676465 C39.8459484,124.310397 38.9608387,124.729245 38.0223414,124.933009 Z M14.3351188,47.7659084 C16.639214,47.0583948 17.805311,46.7499188 17.8334097,46.8404806 C17.8357375,46.8451696 17.8338504,46.8508713 17.8291949,46.8532158 C17.8245393,46.8555603 17.8188782,46.8536597 17.8165505,46.8489707 L17.6310989,46.2461691 C17.6194055,46.2041129 17.5912807,46.1686294 17.5531523,46.1478282 C17.5150239,46.127027 17.4701506,46.1226858 17.4287881,46.135797 L13.9557861,47.3498904 C13.9508655,47.3516285 13.9470204,47.3555619 13.9453715,47.3605442 C13.9437226,47.3655265 13.9444554,47.3709969 13.9473565,47.3753609 L14.0063638,47.587615 C14.0258483,47.6555923 14.0716862,47.7128055 14.1335381,47.7463496 C14.1953901,47.7798937 14.2680465,47.7869434 14.3351188,47.7659084 L14.3351188,47.7659084 Z M16.4088045,54.5495495 C16.7178904,54.5325692 16.9511098,54.4646478 17.1084627,54.3457856 C17.1780433,54.2863561 17.2017553,54.1885814 17.1672122,54.1035362 C17.1326691,54.0184909 17.0477158,53.9654895 16.9567296,53.9722183 C16.5858264,54.0118391 16.352607,54.0656101 16.2570714,54.1335315 C16.1724804,54.1931869 16.1383665,54.3027259 16.1739744,54.4003547 C16.2095822,54.4979834 16.3059872,54.5592324 16.4088045,54.5495495 L16.4088045,54.5495495 Z M17.8839874,62.8614201 C17.9514243,63.0991446 18.2380313,63.2859283 18.4909198,63.2264971 C20.4915488,62.7227474 21.4384757,62.2812588 21.3317006,61.9020315 C21.2249254,61.5171441 20.1880826,61.6303463 18.2211721,62.2416381 C17.9682836,62.3180496 17.8249801,62.6236955 17.8839874,62.8614201 Z" id="Shape" fill="#181717"></path>
            <path d="M14.4016684,47.9855698 C14.3326977,48.0110751 14.2579848,48.0025272 14.1943822,47.9618542 C14.1307796,47.9211812 14.0836443,47.8518088 14.0636083,47.7693849 L14.0029309,47.5120219 C13.9999477,47.5067305 13.9991941,47.5000975 14.0008897,47.4940563 C14.0025853,47.4880152 14.0065393,47.4832458 14.0115991,47.4811383 L17.5829008,46.0090222 C17.625434,45.9931246 17.6715774,45.9983883 17.710785,46.0236103 C17.7499926,46.0488323 17.7789134,46.0918568 17.7909377,46.1428509 L17.9816383,46.8737617 C17.984032,46.8794472 17.9898533,46.8817517 17.9946406,46.878909 C17.9994279,46.8760662 18.0013684,46.8691527 17.9989747,46.8634672 C17.9700807,46.753659 16.7709786,47.1276932 14.4016684,47.9855698 Z" id="Path" fill="#C5C5C7"></path>
            <path d="M16.0949,54.3497473 C16.1882953,54.2697473 16.4162898,54.206414 16.7788835,54.1597473 C16.8678313,54.1518219 16.9508813,54.2142487 16.9846506,54.3144179 C17.0184198,54.414587 16.995239,54.5297493 16.9272172,54.5997473 C16.7733896,54.7397473 16.5453951,54.8197473 16.2432337,54.8397473 C16.1427199,54.8511522 16.0484747,54.7790111 16.0136646,54.6640207 C15.9788545,54.5490303 16.0122041,54.4200115 16.0949,54.3497473 Z" id="Path" fill="#C5C5C7"></path>
            <path d="M20.9929823,61.2862208 C21.0853207,61.7728292 20.2664251,62.3393286 18.5362955,62.9857189 C18.3175993,63.0619784 18.0697437,62.8223056 18.0114247,62.5172675 C17.9603956,62.2122294 18.0843234,61.8200375 18.3030196,61.7219896 C20.0039897,60.9376058 20.9006439,60.7923496 20.9929823,61.2862208 Z" id="Path" fill="#ECEAE2"></path>
            <path d="M210.428702,80.2936211 L208.952084,83.5857074 C207.41166,89.4776977 206.983259,94.9476257 206.399903,100.86494 C206.395071,100.940879 206.327091,101 206.244949,101 L206.235834,101 C206.137299,100.995947 206.058377,100.926513 206.053536,100.839616 C205.761858,93.9768823 206.563972,84.3623021 210.911794,79.0189928 C210.923947,79.0021103 210.939138,78.9964828 210.957368,79.0021103 C210.969522,79.0077378 210.981675,79.0105516 210.993828,79.0105516 C210.997752,79.0137564 211,79.0183681 211,79.0232134 C211,79.0280587 210.997752,79.0326704 210.993828,79.0358753 L210.565426,79.5085851 C210.512035,79.5742861 210.480334,79.6564888 210.474277,79.74494 L210.428702,80.2936211 Z" id="Path" fill="#ECEAE2"></path>
            <path d="M37.7857143,124.372791 L38,124.742791 C36.6507937,124.969457 35.3174603,124.909457 34,124.562791 C34.0899471,124.456124 34.1666667,124.309457 34.2301587,124.122791 C35.3730159,124.449457 36.5582011,124.532791 37.7857143,124.372791 Z" id="Path" fill="#C5C5C7"></path>
            <path d="M176.187174,144.098165 L173.803184,144.132104 C173.708345,144.131996 173.630169,144.206722 173.625653,144.301799 L173.625653,144.310284 C173.625313,144.400789 173.692269,144.475456 173.777823,144.479979 C179.27847,145.017347 184.748121,145.806429 190.186773,146.847226 C192.088893,147.21207 197.541635,148.26418 197.710712,150.538095 C197.738892,150.91708 197.003406,151.581719 195.504254,152.532012 C194.951332,152.881616 194.313911,153.072367 193.661311,153.083521 C185.044006,153.174025 176.288621,153.278671 167.395155,153.397457 C160.429171,153.490789 154.198674,154.610777 147.968176,157.741652 C147.600281,157.926491 147.37984,158.311996 147.410221,158.717399 C147.489123,159.792135 147.892091,160.748084 148.619123,161.585246 C148.831932,161.82606 149.125883,161.982605 149.447602,162.026454 C155.134235,162.722203 158.63977,163.081391 159.964209,163.104017 C176.522511,163.352904 191.711287,164.419155 205.530537,166.30277 C211.126995,167.060742 217.726644,168.686987 225.329486,171.181505 C233.741081,173.947535 238.466791,177.146288 242.364022,184.952263 C244.652202,189.528374 246.731852,193.866913 248.602974,197.967878 C249.313099,199.529073 250.445917,202.05753 252.973622,202.252679 C253.246155,202.26899 253.516507,202.184573 253.73447,202.015106 C256.828584,199.588466 258.72225,195.838204 258.553172,191.858854 C258.479905,190.13362 258.412274,188.56394 258.350279,187.149815 C258.340854,186.921809 258.51641,186.726867 258.747611,186.708607 C258.792698,186.708607 258.865965,186.731233 258.967412,186.776485 C259.022385,186.798619 259.069928,186.840372 259.102673,186.895272 L262.281326,191.99461 C262.591301,194.834175 262.788558,197.713335 262.873097,200.632091 C263.284518,215.265466 262.695566,229.616016 261.106239,243.683741 C260.049506,253.042426 258.781427,260.873855 255.07018,268.959827 C252.184595,275.238546 247.847762,279.947586 242.059683,283.086945 L224.839162,285.445707 C224.11612,285.546969 223.415389,285.75281 222.759512,286.05661 L219.158165,287.736591 C218.127269,288.212417 216.980176,288.371826 215.861158,288.194768 C210.670486,287.363262 205.417818,287.346292 200.103156,288.143859 C193.399242,289.145061 189.23994,290.358381 182.831911,290.646862 C176.491513,290.929687 169.297275,291.549075 161.249196,292.505024 C160.217825,292.62381 158.484783,293.076331 156.05007,293.862585 C155.442528,294.054558 154.817423,294.193663 154.181766,294.278338 C143.749698,295.635898 134.780148,294.787423 121.803466,294.091673 C116.587432,293.811676 111.202321,292.776536 106.958481,292.28442 C105.149354,292.072301 103.661474,292.148664 102.190502,292.140179 C101.791335,292.140161 101.392066,292.100373 100.998507,292.021393 C98.9470357,291.585842 93.9000789,290.573328 85.8576361,288.98385 C82.3154671,288.279615 80.9543949,287.439625 77.2008793,285.844491 C65.9487861,281.059089 57.24976,271.403437 52.3380649,260.644767 C50.9065439,257.51672 49.7483645,253.675954 48.8635268,249.122469 C48.226669,245.83604 47.3390133,241.910427 46.2005596,237.345628 C45.5186145,234.602224 45.1550984,232.189725 45.1100111,230.108132 C44.7549488,213.96447 45.2593627,200.869664 46.6232528,190.823714 C47.3953724,185.155897 48.0547738,181.153921 48.601457,178.817785 C49.784998,173.738244 51.9942744,168.599311 55.2292864,163.400984 C56.7791615,160.917779 58.0754207,159.254767 59.1180639,158.411948 C60.8144727,157.037417 61.913475,155.923086 62.4150709,155.068954 C64.3087365,154.401487 66.3066664,153.810382 68.4088606,153.29564 C82.5324496,149.81689 96.8420236,147.469441 111.337583,146.253293 C132.911844,144.437555 154.528374,143.719179 176.187174,144.098165 Z M119.478654,275.306424 C125.892319,275.413898 131.66349,273.151296 136.792167,268.51862 C145.81244,260.381739 150.605781,248.55399 153.344833,236.955329 C155.627377,236.672504 157.862015,236.802604 160.048748,237.345628 C160.36896,237.424552 160.697895,237.467242 161.029396,237.472899 C167.183809,237.56906 171.050043,237.549262 172.628097,237.413506 C178.78251,236.876138 184.04645,236.531092 188.419916,236.378366 C189.108191,236.357861 189.730523,236.786849 189.958519,237.43896 C193.63595,248.129752 197.710712,256.690871 209.656022,259.923563 C213.426446,260.941733 217.346221,260.786179 221.415347,259.456901 C228.854748,257.024604 234.67946,252.909498 238.889484,247.111582 C243.251678,241.098718 245.331329,233.940413 245.128436,225.636666 C244.87482,215.107084 240.825419,206.664752 231.974223,201.056329 C223.334374,195.566692 211.346795,196.449107 203.231085,202.082984 C195.684603,207.320907 191.173057,214.467899 189.696449,223.523961 C189.645345,223.836266 189.364633,224.059461 189.045501,224.041532 C184.119717,223.786989 179.875877,223.936886 176.313982,224.491224 C174.22306,224.813644 172.309668,224.969198 170.573808,224.957885 C166.186253,224.932431 161.426727,224.80516 157.529496,226.917864 C157.418128,226.973675 157.296568,227.002723 157.174434,227.002711 L151.662514,227.002711 C151.361202,227.003235 151.098911,226.796146 151.028475,226.502111 C147.427128,212.162874 139.539673,197.662427 123.883117,194.404281 C120.47621,193.691561 116.545163,192.800662 113.442595,192.987326 C101.455015,193.688733 91.6034458,198.584437 83.8878858,207.674438 C78.4548691,214.0776 75.4171139,221.419742 74.7746203,229.700863 C73.5234484,245.720082 76.5922011,259.974471 89.4420745,270.26648 C90.8961391,271.431719 92.5925479,272.413123 94.5313007,273.21069 C102.861175,276.649844 111.176959,277.348422 119.478654,275.306424 Z" id="Shape" fill="#ECEAE2"></path>
            <path d="M262,191.767552 L258.817857,186.681937 C258.785077,186.627184 258.737481,186.585544 258.682447,186.56347 C258.580889,186.518339 258.507542,186.495774 258.462405,186.495774 C258.230951,186.513985 258.055202,186.708402 258.064638,186.935794 C258.126701,188.346115 258.194406,189.91157 258.267753,191.632161 C258.437016,195.600803 256.541272,199.340973 253.44376,201.761082 C253.225558,201.930093 252.95491,202.014282 252.682077,201.998016 C250.151597,201.803392 249.017536,199.281739 248.306631,197.724745 C246.433455,193.634816 244.351522,189.307953 242.06083,184.744156 C238.159321,176.959188 233.428423,173.769043 225.007593,171.010456 C217.396405,168.522651 210.78951,166.900783 205.186908,166.144851 C191.352487,164.266304 176.147037,163.202923 159.570557,162.954706 C158.244664,162.932141 154.73528,162.57392 149.042404,161.880042 C148.720333,161.836311 148.426058,161.680188 148.213016,161.440022 C147.485186,160.605112 147.081776,159.651736 147.002786,158.579892 C146.972372,158.17558 147.193055,157.791113 147.561354,157.606771 C153.798692,154.484322 160.03603,153.367348 167.009661,153.274267 C175.91289,153.1558 184.677887,153.051436 193.304652,152.961176 C193.957969,152.950051 194.596089,152.759814 195.149618,152.411151 C196.650416,151.463416 197.386709,150.800565 197.358499,150.422599 C197.189236,148.154804 191.730507,147.105526 189.8263,146.741663 C184.381677,145.703667 178.906022,144.916708 173.399335,144.380787 C173.313688,144.376276 173.246658,144.301809 173.246999,144.211548 L173.246999,144.203086 C173.25152,144.108264 173.329782,144.03374 173.424725,144.033848 L175.811332,144 C187.106809,144.197445 198.379718,144.899784 209.630059,146.107019 C222.028566,147.43554 235.755787,150.73569 245.945414,158.444502 C256.092725,166.136389 260.899791,179.353912 262,191.767552 Z" id="Path" fill="#EFEFEF"></path>
            <path d="M62.2679406,155 C61.7661005,155.850815 60.6665632,156.960818 58.9693287,158.33001 C57.9261779,159.169556 56.6292877,160.82611 55.0786582,163.299671 C51.8420715,168.477809 49.6317196,173.596784 48.4476025,178.656597 C47.9006531,180.98366 47.2409307,184.970094 46.4684353,190.615898 C45.1038813,200.622833 44.5992219,213.666783 44.954457,229.747747 C44.9995662,231.821256 45.3632593,234.224385 46.0455363,236.957135 C47.1845442,241.504205 48.072632,245.414573 48.7097998,248.688238 C49.5950683,253.224039 50.7538115,257.049888 52.1860293,260.165786 C57.1001152,270.882673 65.8033759,280.500825 77.0609463,285.267642 C80.8162891,286.856581 82.1780238,287.693309 85.7219171,288.394809 C93.7682747,289.978113 98.8176883,290.986695 100.870158,291.420555 C101.263908,291.499228 101.663372,291.538862 102.062733,291.53888 C103.534421,291.547332 105.023026,291.471265 106.833033,291.68256 C111.078939,292.172765 116.466672,293.203885 121.685245,293.482794 C134.668243,294.175842 143.642159,295.021023 154.079306,293.668734 C154.715272,293.584388 155.340682,293.445824 155.948519,293.254596 C158.384417,292.471395 160.118303,292.020633 161.150176,291.902307 C169.202172,290.950071 176.399913,290.333089 182.743397,290.051362 C189.154546,289.764001 193.315871,288.555393 200.023049,287.55808 C205.340299,286.763611 210.595523,286.780515 215.788722,287.608791 C216.908284,287.785162 218.055936,287.626372 219.087334,287.152394 L222.690433,285.478937 C223.34663,285.176318 224.047702,284.971276 224.771096,284.870407 L242,282.520806 C234.624642,287.152394 227.455095,290.406338 220.491359,292.282638 C212.760766,294.367417 203.820682,296.094402 193.671106,297.463594 C173.259183,300.224516 152.686558,302.38536 131.953232,303.946127 C115.166962,305.213897 99.7959946,305.337857 85.8403288,304.318006 C81.679003,304.013741 75.7555982,302.968535 68.0701144,301.182387 C47.4833928,296.398667 33.2063238,279.604934 28.9688762,259.075504 C27.2039779,250.51101 26.2454069,241.174585 26.0931633,231.066228 C25.9409196,220.687414 25.8394239,208.880245 26.9305032,197.960515 C27.5958642,191.272322 29.2733635,185.063064 31.9630009,179.332741 C37.629847,167.255115 49.5133078,158.51595 62.2679406,155 Z" id="Path" fill="#C5C5C7"></path>
            <path d="M22,162 C17.4603175,170.577947 13.7936508,179.577947 11,189 C12.4193548,179.121673 16.0860215,170.121673 22,162 Z" id="Path" fill="#ECEAE2"></path>
            <path d="M153.000834,236.737381 C151.006979,236.579919 149.744581,238.028001 149.213639,241.081626 C148.773071,243.578513 148.547138,244.843828 148.535842,244.877569 C144.72323,259.487731 133.717491,270.698416 119.060117,274.865518 C110.740152,276.895644 102.406065,276.201127 94.0578575,272.781967 C92.1148376,271.989036 90.4146952,271.013339 88.9574303,269.854873 C76.0792754,259.622698 73.0037687,245.451178 74.2576943,229.525089 C74.901602,221.292111 77.946043,213.992654 83.3910173,207.626717 C91.1235586,198.589561 100.996811,193.722319 113.010774,193.02499 C116.12017,192.839411 120.059869,193.725131 123.474274,194.433707 C139.16529,197.672911 147.070104,212.089059 150.679377,226.344933 C150.749968,226.637259 151.012836,226.843144 151.314812,226.842623 L156.838863,226.842623 C156.961266,226.842635 157.083093,226.813755 157.194706,226.758269 C161.100515,224.657847 165.870516,224.784379 170.267728,224.809685 C172.007409,224.820932 173.925011,224.666283 176.020536,224.345736 C179.59027,223.794622 183.84345,223.645596 188.780076,223.898659 C189.09991,223.916484 189.381239,223.694587 189.432456,223.384098 C190.912314,214.380683 195.433789,207.275241 202.996881,202.06777 C211.130453,196.466645 223.144416,195.589361 231.80328,201.047083 C240.673957,206.622901 244.73227,215.016152 244.986444,225.484519 C245.189783,233.739992 243.105556,240.856682 238.733761,246.834589 C234.514471,252.598798 228.676939,256.689981 221.221165,259.108137 C217.143082,260.429688 213.21468,260.584337 209.435959,259.572086 C197.464358,256.358187 193.380627,247.84684 189.695103,237.2182 C189.466605,236.56988 188.842904,236.143386 188.153113,236.163772 C183.770022,236.315609 178.494497,236.65865 172.326538,237.192894 C170.745011,237.327861 166.870268,237.347543 160.702309,237.251942 C160.370078,237.246317 160.04042,237.203875 159.719503,237.125411 C157.527957,236.585543 155.288401,236.4562 153.000834,236.737381 Z M231.261042,224.261382 C231.825873,221.162768 231.102889,218.620892 229.09209,216.635755 C228.93002,216.479982 228.736702,216.359328 228.524434,216.281467 C226.228395,215.471666 224.076387,218.390324 223.906938,220.128022 C223.737488,221.876968 224.056618,223.690585 224.864327,225.568873 C224.984315,225.856292 225.210774,226.09078 225.499762,226.226837 C227.973724,227.379679 229.829195,226.901671 231.066175,224.792814 C231.16146,224.625418 231.22734,224.445753 231.261042,224.261382 L231.261042,224.261382 Z M128.532339,225.914726 C128.187792,227.646801 128.264044,229.24672 128.761096,230.714485 C129.478432,232.187873 130.514897,232.972368 131.870493,233.067969 C132.139896,233.089761 132.40834,233.021459 132.633015,232.873955 C134.513903,231.636758 135.42893,230.014344 135.378095,228.006712 C135.310316,225.349552 135.149339,222.599603 133.836106,219.98462 C132.887189,218.095084 131.268947,217.766102 129.76932,219.225431 C128.015519,220.946259 128.159551,223.291308 128.532339,225.914726 Z" id="Shape" fill="#181717"></path>
            <path d="M231.598452,224.896558 C230.293617,227.06544 228.336364,227.557054 225.726693,226.371398 C225.421853,226.231468 225.182971,225.990306 225.056401,225.694707 C224.204385,223.762955 223.86775,221.897716 224.046494,220.09899 C224.225239,218.31183 226.495295,215.310097 228.917284,216.142948 C229.141195,216.223025 229.345117,216.347113 229.516078,216.50732 C231.63718,218.548961 232.399823,221.163188 231.804008,224.349999 C231.768457,224.539618 231.698963,224.724397 231.598452,224.896558 L231.598452,224.896558 Z" id="Path" fill="#EFEFEF"></path>
            <path d="M129.459132,230.603523 C129.771704,228.957114 129.696351,227.330713 129.233076,225.724321 C128.864688,223.057481 128.722356,220.673617 130.455454,218.924307 C131.937378,217.440824 133.536516,217.775251 134.474231,219.696062 C135.771961,222.354327 135.931037,225.149792 135.998017,227.850933 C136.048252,229.891794 135.144027,231.541062 133.285343,232.798735 C133.06332,232.948681 132.798045,233.018114 132.531822,232.995962 C131.19223,232.898778 130.168,232.101298 129.459132,230.603523 Z" id="Path" fill="#ECEAE2"></path>
            <path d="M128.64706,231 C128.060393,229.471002 127.970393,227.804335 128.37706,226 C128.930393,227.646163 129.020393,229.31283 128.64706,231 Z" id="Path" fill="#C5C5C7"></path>
            <path d="M153,237.011539 C150.250125,248.499432 145.437843,260.214226 136.381927,268.273399 C131.232984,272.861833 125.439008,275.102827 119,274.99638 C133.682976,270.844939 144.707938,259.676387 148.527209,245.121134 C148.538526,245.087519 148.764853,243.82696 149.206191,241.339457 C149.73806,238.297309 151.002663,236.854669 153,237.011539 Z" id="Path" fill="#EFEFEF"></path>
            <path d="M69.3598768,317.382182 L69.9098768,317.552182 C69.0498768,317.678848 68.8665435,317.622182 69.3598768,317.382182 Z" id="Path" fill="#ECEAE2"></path>
        </g>
    </g>
</svg>